<?xml version="1.0" standalone="no"?>
<!DOCTYPE svg PUBLIC "-//W3C//DTD SVG 20010904//EN"
 "http://www.w3.org/TR/2001/REC-SVG-20010904/DTD/svg10.dtd">
<svg version="1.0" xmlns="http://www.w3.org/2000/svg"
 width="75.000000pt" height="75.000000pt" viewBox="0 0 75.000000 75.000000"
 preserveAspectRatio="xMidYMid meet">
<metadata>
Created by potrace 1.11, written by Peter Selinger 2001-2013
</metadata>
<g transform="translate(0.000000,75.000000) scale(0.100000,-0.100000)"
fill="#000000" stroke="none">
<path d="M330 733 c-14 -10 -34 -27 -46 -38 -11 -11 -51 -47 -89 -80 -146
-128 -156 -143 -104 -155 l24 -6 3 -166 c2 -161 2 -166 -19 -171 -11 -3 -23
-15 -26 -26 -3 -11 -15 -21 -27 -23 -16 -2 -22 -11 -24 -36 l-3 -32 355 0
c278 0 356 3 356 13 0 33 -14 57 -31 57 -12 0 -23 10 -29 25 -5 14 -17 25 -27
25 -17 0 -18 12 -17 147 2 208 0 193 28 193 59 0 31 39 -130 179 -21 19 -58
52 -81 73 -47 42 -76 47 -113 21z m106 -47 c11 -11 121 -109 182 -162 17 -16
32 -32 32 -36 0 -5 -108 -8 -240 -8 -153 0 -240 -4 -240 -10 0 -5 7 -10 15
-10 13 0 15 -26 15 -171 l0 -170 -27 3 -28 3 0 175 0 175 -29 5 -29 5 50 45
c231 208 227 206 263 183 14 -9 30 -21 36 -27z m82 -398 l2 -168 -30 0 c-21 0
-30 5 -30 16 0 9 -7 22 -16 28 -10 8 -15 29 -15 72 0 33 -4 66 -8 72 -4 7 -26
10 -51 9 l-45 -3 -3 -77 c-2 -43 -7 -75 -12 -72 -11 7 -32 -29 -23 -39 3 -3
-9 -6 -28 -6 l-35 0 1 145 0 145 133 0 c103 0 133 3 129 13 -3 9 -38 12 -130
12 -89 -1 -127 3 -127 11 0 8 41 11 143 10 l142 -1 3 -167z m82 1 l0 -169 -28
0 -29 0 2 168 c1 92 3 168 4 168 0 1 12 2 26 2 l25 0 0 -169z m-160 -159 c0
-6 -28 -10 -65 -10 -37 0 -65 4 -65 10 0 6 28 10 65 10 37 0 65 -4 65 -10z
m203 -39 c4 -1 7 -5 7 -11 0 -6 -98 -10 -275 -10 -162 0 -275 4 -275 9 0 5 8
11 17 13 13 2 500 2 526 -1z m57 -56 c0 -8 -92 -10 -328 -9 -180 1 -328 2
-330 3 -2 0 -1 5 2 9 8 14 656 11 656 -3z"/>
<path d="M347 638 c-52 -28 -35 -108 23 -108 64 0 84 82 25 106 -21 8 -36 9
-48 2z m52 -32 c23 -28 -17 -68 -45 -45 -17 14 -18 46 -1 52 22 9 34 7 46 -7z"/>
<path d="M72 648 c-16 -16 -16 -91 0 -86 7 3 12 15 13 29 0 36 13 49 46 49 16
0 29 5 29 10 0 14 -74 12 -88 -2z"/>
<path d="M580 650 c0 -5 9 -11 20 -11 11 -1 25 -3 30 -4 6 -1 15 -3 20 -4 6 0
10 -17 10 -36 0 -23 5 -35 13 -35 17 0 15 64 -3 85 -14 17 -90 21 -90 5z"/>
<path d="M62 291 c4 -158 23 -162 23 -4 0 86 -3 117 -13 121 -10 3 -12 -22
-10 -117z"/>
<path d="M662 291 c4 -159 23 -162 23 -4 0 86 -3 117 -13 121 -10 3 -12 -22
-10 -117z"/>
</g>
</svg>
